<svg width="25" height="19" viewBox="0 0 25 19" fill="none" xmlns="http://www.w3.org/2000/svg">
<path d="M1.42105 16.3566C0.642165 16.3566 -0.0659112 16.7814 0.00489644 17.3479C0.0757041 17.9851 0.642166 18.3392 1.35024 18.3392C2.19993 18.3392 2.7664 18.056 2.7664 17.3479C2.69559 16.7106 2.19993 16.3566 1.42105 16.3566Z" fill="white"/>
<path d="M16.8567 4.60256C15.8654 4.60256 15.2281 4.74417 15.2281 5.31064C15.2281 5.8771 15.8654 6.23114 17.7772 6.65598C22.3797 7.64729 24.9996 8.99263 24.9996 12.3914C24.9996 16.2858 21.53 18.4101 17.2107 18.4101H13.5995C12.4666 18.4101 10.0591 18.4101 8.99704 18.4101L6.16473 18.3392C4.74858 18.3392 4.32373 18.1268 4.32373 17.3479C4.32373 16.5691 4.81938 16.3566 6.16473 16.3566H7.08523C7.93492 16.2858 8.14734 15.861 7.65169 15.2945C7.36846 14.9405 7.01442 14.6572 7.29765 14.2324C7.51007 13.8076 8.07654 13.8076 8.57219 13.8076L11.5461 13.8784H17.2107C17.9896 13.8784 18.6977 13.6659 18.6977 13.0287C18.6977 12.2498 17.848 12.0374 16.1486 11.6833C15.4405 11.5417 14.7325 11.3293 14.0952 11.1877C12.2542 10.692 9.70511 9.41748 9.70511 9.41748C9.35107 9.20506 8.85542 9.20505 8.50138 9.34667C7.7933 9.48828 7.08523 9.48829 6.44796 9.20506C6.09392 9.06344 5.73988 8.85102 5.73988 8.42617C5.73988 8.00133 6.02311 7.85971 6.30634 7.64729C7.01442 7.43486 7.79331 7.36406 8.57219 7.43486C8.85542 7.43486 9.06784 7.43486 9.28027 7.43486C9.91754 7.36406 10.2716 7.15164 10.3424 6.65598C10.4132 6.08952 9.91753 5.80629 8.99704 5.73548C8.85542 5.73548 8.71381 5.73548 8.57219 5.73548H5.66907C5.03181 5.73548 4.46534 5.59387 4.46534 4.9566C4.39454 4.24852 4.961 3.96529 5.66907 3.96529H9.63431C10.4132 3.96529 10.9796 3.82368 10.9796 3.1156C10.9796 2.69075 10.6964 2.40752 10.2716 2.33671C10.0591 2.26591 9.84673 2.26591 9.63431 2.26591H9.06784C8.50138 2.1951 8.07654 1.98268 8.07654 1.41621C8.07654 0.849753 8.43057 0.424906 9.06784 0.424906C9.84673 0.354098 10.7672 0.283293 11.5461 0.283293C11.5461 0.283293 13.9536 0.141676 16.1486 6.10352e-05H16.2194C16.4318 6.10352e-05 16.6443 6.10352e-05 16.9275 6.10352e-05H23.8666C24.5039 6.10352e-05 24.9288 0.495715 24.9288 1.06218V3.46964C24.9288 4.10691 24.4331 4.53175 23.8666 4.53175H16.8567V4.60256Z" fill="white"/>
</svg>
