<svg width="200" height="17" viewBox="0 0 200 17" fill="none" xmlns="http://www.w3.org/2000/svg">
<path d="M30.4139 15.9909H23.9775V12.2347H25.3502V4.06866H23.9775V0.3125H31.403L37.0964 8.50995V4.06866H35.8226V0.3125H42.148V4.06866H40.7874V16.208H35.6272L29.0195 6.73681V12.2565H30.4139V15.9909Z" fill="black"/>
<path d="M49.0403 16.2077H42.8885V12.4515H44.0851L47.0235 4.28546H45.7063V0.529297H56.9748V4.28546H55.713L58.7069 12.4515H59.86V16.2077H51.6843V12.7676H53.057L52.4587 10.7966H48.4516L47.7544 12.7676H49.0403V16.2077ZM50.5094 4.50258L49.0403 8.80394H51.8483L50.5094 4.50258Z" fill="black"/>
<path d="M70.2841 16.2082H61.1289V12.452H62.6536V4.28594H61.1289V0.529786H70.7425C72.3733 0.455 74.0041 0.676944 75.5553 1.18356C76.4816 1.52612 77.2801 2.14612 77.8422 2.95911C78.3175 3.69249 78.566 4.54649 78.5612 5.41979C78.6094 6.40647 78.3175 7.37868 77.7337 8.17479C77.1499 8.91782 76.3634 9.47268 75.4684 9.77423C74.0788 10.1482 72.6386 10.3098 71.2008 10.2543H68.7088V12.4327H70.2865V16.2082H70.2841ZM68.7039 3.96992V6.90826H69.8909C70.506 6.94927 71.1236 6.85277 71.6978 6.62601C72.0645 6.38959 72.2695 5.96982 72.2309 5.538C72.2406 5.20508 72.1368 4.8794 71.9366 4.61162C71.7701 4.33902 71.5048 4.14361 71.196 4.06641C70.6894 3.98439 70.1755 3.95303 69.6617 3.9675L68.7039 3.96992Z" fill="black"/>
<path d="M89.2802 16.2082H80.125V12.4521H81.6497V4.28597H80.125V0.529813H89.7048C91.3573 0.44779 93.0098 0.669734 94.5827 1.18358C95.4994 1.53339 96.2859 2.15821 96.8359 2.96878C97.3112 3.70216 97.5597 4.55616 97.5548 5.42947C97.5958 6.41856 97.2919 7.39319 96.6936 8.18447C96.1098 8.92508 95.3233 9.47994 94.4283 9.78391C93.0339 10.1602 91.5913 10.3219 90.1487 10.264H87.7V12.4424H89.2778V16.2082H89.2802ZM87.7 3.96994V6.90829H88.887C89.5021 6.9493 90.1197 6.8528 90.6939 6.62603C91.0606 6.38961 91.2656 5.96985 91.227 5.53803C91.2367 5.20511 91.1329 4.87943 90.9327 4.61165C90.7518 4.36317 90.484 4.19189 90.1824 4.13158C89.6662 4.02784 89.1403 3.97236 88.6144 3.96753H87.7V3.96994Z" fill="black"/>
<path d="M110.834 16.2077H102.277V12.4515H103.529V9.95709L99.5773 4.28546H98.4893V0.529297H106.677V4.28546H105.741L107.418 7.48676L109.432 4.28546H108.474V0.529297H114.505V4.28546H113.526L109.596 9.95709V12.4491H110.836L110.834 16.2077Z" fill="black"/>
<path d="M123.193 7.53086L122.92 8.89147H127.808L127.241 11.7213H122.363L122.059 13.2459H127.895L127.297 16.2084H117.63L119.948 4.5708H129.41L128.812 7.53327H123.193V7.53086Z" fill="black"/>
<path d="M137.394 10.4161L140.518 16.2084H136.272L134.834 13.2145L132.296 16.2084H127.614L133.056 10.1869L130.106 4.56836H134.342L135.78 7.47534L138.272 4.56836H142.691L137.394 10.4161Z" fill="black"/>
<path d="M152.154 5.58111C153.01 6.26865 153.483 7.32529 153.427 8.42295C153.447 9.33485 153.196 10.2323 152.709 11.0043C152.197 11.7642 151.478 12.3649 150.641 12.7364C149.667 13.1586 148.612 13.366 147.548 13.3467H145.534L144.967 16.2103H141.047L143.365 4.57271H148.494C149.794 4.48104 151.085 4.83808 152.154 5.58111ZM149.008 9.93555C149.3 9.65088 149.461 9.25524 149.454 8.84754C149.454 8.0635 148.964 7.67269 147.995 7.67269H146.678L146.132 10.3939H147.744C148.212 10.4011 148.663 10.2299 149.005 9.91384V9.93555H149.008Z" fill="black"/>
<path d="M164.826 11.0918C164.245 11.8854 163.437 12.4861 162.508 12.8118L164.445 16.2085H160.373L158.73 13.2798H157.772L157.205 16.2085H153.285L155.604 4.57094H160.829C162.095 4.49374 163.35 4.84837 164.39 5.5721C165.244 6.25241 165.716 7.30182 165.663 8.39224C165.68 9.35721 165.386 10.3029 164.826 11.0918ZM160.211 7.59614H158.894L158.349 10.3174H159.96C160.416 10.3487 160.87 10.204 161.222 9.91448C161.519 9.63223 161.68 9.23659 161.668 8.82648C161.635 8.02072 161.157 7.59614 160.177 7.59614H160.211Z" fill="black"/>
<path d="M171.196 7.53086L170.936 8.89147H175.857L175.29 11.7213H170.347L170.053 13.2459H175.888L175.29 16.2084H165.611L167.942 4.5708H177.403L176.805 7.53327H171.196V7.53086Z" fill="black"/>
<path d="M178.577 15.878C177.812 15.7091 177.076 15.4221 176.398 15.0288L177.889 12.1122C179.076 12.8166 180.43 13.193 181.81 13.2002C182.181 13.2147 182.55 13.1544 182.898 13.0265C183.17 12.8962 183.3 12.7322 183.3 12.5247C183.3 12.3173 183.158 12.1653 182.898 12.035C182.478 11.871 182.044 11.7383 181.602 11.6442C180.968 11.4777 180.348 11.2703 179.74 11.0242C179.226 10.8167 178.767 10.4911 178.401 10.0761C178.032 9.60328 177.848 9.00982 177.889 8.41154C177.87 7.59131 178.116 6.78555 178.587 6.1149C179.105 5.42012 179.812 4.88697 180.623 4.58059C181.629 4.20425 182.695 4.02091 183.768 4.04744C184.581 4.03779 185.392 4.12223 186.186 4.29834C186.866 4.44791 187.517 4.69639 188.123 5.03895L186.707 7.90251C186.246 7.60337 185.737 7.38143 185.204 7.24874C184.654 7.104 184.087 7.03162 183.518 7.03162C183.083 7.01474 182.651 7.09435 182.256 7.27045C181.962 7.42244 181.81 7.60819 181.81 7.81566C181.824 8.05208 181.986 8.25231 182.212 8.31745C182.647 8.48632 183.095 8.62142 183.551 8.72033C184.198 8.86266 184.835 9.04842 185.457 9.27519C185.971 9.48024 186.429 9.79868 186.796 10.2112C187.189 10.6744 187.392 11.2703 187.363 11.8758C187.377 12.6912 187.124 13.4921 186.644 14.1507C186.121 14.8431 185.411 15.3714 184.598 15.6754C183.602 16.0517 182.541 16.2351 181.474 16.2085C180.497 16.2158 179.525 16.1048 178.577 15.878Z" fill="black"/>
<path d="M189.496 15.8775C188.731 15.7087 187.995 15.4216 187.317 15.0284L188.777 12.1117C189.964 12.8161 191.317 13.1925 192.697 13.1997C193.085 13.2214 193.474 13.1611 193.84 13.026C194.113 12.8958 194.243 12.7317 194.243 12.5242C194.243 12.3168 194.113 12.1648 193.84 12.0345C193.421 11.8705 192.986 11.7378 192.545 11.6437C191.889 11.4845 191.247 11.2794 190.617 11.0334C190.104 10.8259 189.645 10.5002 189.279 10.0853C188.909 9.60761 188.731 9.00933 188.777 8.40863C188.757 7.58599 189.006 6.78024 189.484 6.112C189.997 5.41239 190.704 4.87924 191.52 4.57769C192.521 4.19894 193.585 4.018 194.656 4.04454C195.469 4.03489 196.279 4.11933 197.073 4.29543C197.753 4.445 198.405 4.69349 199.01 5.03605L197.594 7.89961C197.133 7.60047 196.624 7.37852 196.091 7.24584C195.541 7.10109 194.974 7.02872 194.405 7.02872C193.971 7.01183 193.539 7.09144 193.143 7.26755C192.849 7.41954 192.697 7.60529 192.697 7.81276C192.711 8.04918 192.873 8.24941 193.1 8.31455C193.534 8.48342 193.983 8.61852 194.439 8.71742C195.085 8.85976 195.722 9.04552 196.345 9.27228C196.858 9.47734 197.317 9.79578 197.683 10.2083C198.077 10.6715 198.279 11.2674 198.25 11.8729C198.265 12.6883 198.012 13.4892 197.532 14.1478C197.01 14.8426 196.299 15.3709 195.486 15.6725C194.489 16.0488 193.428 16.2322 192.362 16.2056C191.394 16.2129 190.434 16.1019 189.496 15.8775Z" fill="black"/>
<path d="M2.20412 14.452C1.52864 14.4399 0.913467 14.8042 0.997902 15.3277C1.08234 15.8512 1.5407 16.2034 2.13175 16.1913C2.85548 16.1913 3.33796 15.9597 3.33796 15.3542C3.34037 14.7439 2.88201 14.4664 2.20412 14.452Z" fill="black"/>
<path d="M14.4441 4.26165V4.24959C13.6045 4.24959 13.04 4.36539 13.04 4.89371C13.04 5.35449 13.5804 5.67775 15.2161 6.03479C19.2231 6.86467 21.4329 8.04917 21.4329 10.9972C21.4329 14.336 18.4391 16.2008 14.6853 16.2008H11.5902C10.6011 16.2129 9.59267 16.2008 8.67353 16.2008L6.30211 16.1429C5.09348 16.1308 4.70267 15.9475 4.71232 15.3034C4.72438 14.6592 5.13932 14.4156 6.27798 14.4156H7.0958C7.82194 14.3698 8.02941 13.9886 7.59035 13.494C7.36117 13.207 7.05961 12.9175 7.27914 12.5845C7.48661 12.2396 7.95945 12.2396 8.36233 12.2396L9.86286 12.2733H14.7456C15.4356 12.2733 16.0122 12.09 16.0122 11.5593C16.0122 10.9151 15.2981 10.7294 13.7903 10.4182C13.1679 10.2927 12.5817 10.1408 12.0292 9.98153C10.4177 9.57866 8.20552 8.42793 8.20552 8.42793C7.88225 8.25423 7.49144 8.23252 7.14646 8.35797C6.54818 8.48341 5.93783 8.44964 5.36126 8.25423C5.02834 8.1505 4.76298 7.95509 4.73885 7.59805C4.71473 7.25307 4.99216 7.07938 5.25753 6.94187C5.87993 6.7344 6.53611 6.6765 7.1923 6.76817C7.42148 6.78023 7.62895 6.78023 7.8147 6.75611C8.36715 6.71027 8.69042 6.49074 8.72419 6.11199C8.75797 5.65122 8.35509 5.39791 7.58311 5.34001C7.46731 5.32795 7.36358 5.32795 7.23813 5.32795H4.70508C4.17434 5.31589 3.67979 5.23628 3.63396 4.62593C3.58812 4.01559 4.03683 3.79605 4.64718 3.79605H8.04389C8.68801 3.80812 9.20668 3.64648 9.20668 3.06026C9.20668 2.66945 8.95337 2.46198 8.6084 2.37031C8.4347 2.32447 8.23929 2.30035 8.04389 2.30035H7.53727C7.04273 2.25451 6.68569 2.07116 6.66156 1.55249C6.63744 1.04588 6.99448 0.722614 7.52521 0.722614C8.20552 0.652653 8.96544 0.618879 9.64333 0.573043C9.64333 0.573043 11.7397 0.447596 13.6383 0.319737H13.6721C13.8699 0.3125 14.0653 0.3125 14.2607 0.3125H19.3992C19.9227 0.3125 20.3449 0.737088 20.3449 1.25817V3.31357C20.3449 3.83707 19.9203 4.25924 19.3992 4.25924H14.4441V4.26165Z" fill="black"/>
</svg>
